<?xml version="1.0" encoding="UTF-8"?>
<svg xmlns="http://www.w3.org/2000/svg" version="1.1" viewBox="0 0 51.27 51.27">
  <defs>
    <style>
      .cls-1, .cls-2, .cls-3, .cls-4, .cls-5, .cls-6 {
        stroke-width: 0px;
      }

      .cls-1, .cls-3 {
        fill: #788492;
      }

      .cls-7 {
        isolation: isolate;
      }

      .cls-2 {
        fill: #381d84;
      }

      .cls-3 {
        mix-blend-mode: multiply;
        opacity: .33;
      }

      .cls-4 {
        fill: #0c116d;
      }

      .cls-5 {
        fill: #616b75;
      }

      .cls-6 {
        fill: #495056;
      }
    </style>
  </defs>
  <g class="cls-7">
    <g id="Camada_1" data-name="Camada 1">
      <g>
        <g>
          <g>
            <path class="cls-2" d="M25.92,27.53c-.19.41-.41.8-.67,1.14v.03c-2,2.77-5.71,3.78-8.89,2.3-3.61-1.68-5.16-5.94-3.47-9.55,1.28-2.74,4.05-4.29,6.88-4.12.91.03,1.8.25,2.67.65,3.61,1.68,5.16,5.94,3.47,9.55Z"/>
            <path class="cls-4" d="M25.92,27.53c-.19.41-.41.8-.67,1.14-.75-5.77-3.73-9.57-5.48-11.35.91.03,1.8.25,2.67.65,3.61,1.68,5.16,5.94,3.47,9.55Z"/>
          </g>
          <path class="cls-1" d="M51.14,25.56c0,1.51-.13,2.99-.39,4.43-1.09,1.48-2.38,2.85-3.28,4.15-.25.36-.47.72-.65,1.07-.73,1.46-1.03,3.96-1.14,6.18-.64.82-1.33,1.6-2.06,2.33-2.59,2.59-5.73,4.63-9.23,5.92-2.78,1.04-5.79,1.6-8.93,1.6-8.75,0-16.48-4.38-21.11-11.06-1.01-4.07-3.1-6.1-3.9-8.82-.01-.04-.02-.08-.03-.12-.04-.11-.06-.23-.08-.35-.01-.04-.02-.09-.03-.13-.38-2.12-.12-6,.56-9.31.49-2.37,1.18-4.45,2-5.4.9-1.04,1.71-3.09,2.34-5.08.42-1.32,1.09-2.57,2.07-3.55l.02-.02c1.23-1.23,2.59-2.34,4.06-3.3C15.41,1.43,20.25-.12,25.46-.12c7.1,0,13.52,2.88,18.16,7.52,4.65,4.65,7.52,11.07,7.52,18.16Z"/>
          <ellipse class="cls-5" cx="36.54" cy="26.93" rx="4.78" ry="3.55" transform="translate(-3.1 49.04) rotate(-65.54)"/>
          <ellipse class="cls-5" cx="24.8" cy="37.79" rx="4.78" ry="6.45" transform="translate(-19.92 31.2) rotate(-48.34)"/>
          <path class="cls-3" d="M51.14,25.56c0,1.51-.13,2.99-.39,4.43-1.09,1.48-2.38,2.85-3.28,4.15C45.46,17.18,31.04,4.03,13.54,4.03c-.73,0-1.46.02-2.18.07C15.41,1.43,20.25-.12,25.46-.12c7.1,0,13.52,2.88,18.16,7.52,4.65,4.65,7.52,11.07,7.52,18.16Z"/>
          <g>
            <path class="cls-5" d="M23.19,14.52c0,.39-.03.78-.1,1.15v.03c-.55,2.92-3.1,5.08-6.14,5.08-3.46,0-6.25-2.79-6.25-6.25,0-2.63,1.61-4.87,3.9-5.78.73-.31,1.51-.47,2.34-.47,3.46,0,6.25,2.79,6.25,6.25Z"/>
            <path class="cls-6" d="M23.19,14.52c0,.39-.03.78-.1,1.15-2.71-4.27-6.46-6.17-8.49-6.92.73-.31,1.51-.47,2.34-.47,3.46,0,6.25,2.79,6.25,6.25Z"/>
          </g>
          <g>
            <path class="cls-5" d="M25.27,22.16c.23.03.46.07.68.15h.02c1.7.55,2.8,2.23,2.57,4.05-.26,2.07-2.13,3.52-4.2,3.26-1.57-.2-2.79-1.33-3.16-2.77-.13-.46-.17-.94-.1-1.43.26-2.07,2.13-3.52,4.2-3.26Z"/>
            <path class="cls-6" d="M25.27,22.16c.23.03.46.07.68.15-2.75,1.3-4.17,3.39-4.77,4.55-.13-.46-.17-.94-.1-1.43.26-2.07,2.13-3.52,4.2-3.26Z"/>
          </g>
          <path class="cls-3" d="M34.39,49.79c-2.78,1.04-5.79,1.6-8.93,1.6-8.75,0-16.48-4.38-21.11-11.06-1.01-4.07-3.1-6.1-3.9-8.82-.01-.04-.02-.08-.03-.12-.04-.11-.06-.23-.08-.35-.01-.04-.02-.09-.03-.13-.38-2.12-.12-6,.56-9.31,3.26,4.03,9.21,11.49,14.09,18.2,3.96,5.45,12.57,8.42,19.43,9.99Z"/>
        </g>
        <ellipse class="cls-6" cx="38.78" cy="38.9" rx=".66" ry="1.1"/>
        <ellipse class="cls-6" cx="29.9" cy="31.68" rx="1.1" ry=".66" transform="translate(-13.31 37.26) rotate(-54.01)"/>
        <ellipse class="cls-5" cx="25.64" cy="11.28" rx=".66" ry="1.1" transform="translate(9.72 34.33) rotate(-79.12)"/>
      </g>
    </g>
  </g>
</svg>