<?xml version="1.0" encoding="UTF-8"?>
<svg xmlns="http://www.w3.org/2000/svg" version="1.1" viewBox="0 0 51.27 51.27">
  <defs>
    <style>
      .cls-1 {
        fill: #aa9fdd;
      }

      .cls-1, .cls-2, .cls-3, .cls-4, .cls-5, .cls-6, .cls-7, .cls-8 {
        stroke-width: 0px;
      }

      .cls-9 {
        fill: none;
        stroke: #392c7c;
        stroke-miterlimit: 10;
      }

      .cls-10 {
        isolation: isolate;
      }

      .cls-2, .cls-4, .cls-11, .cls-7 {
        mix-blend-mode: multiply;
      }

      .cls-2, .cls-8 {
        fill: #8e3f88;
      }

      .cls-3, .cls-4, .cls-7 {
        fill: #e09bd2;
      }

      .cls-5 {
        fill: #b750ac;
      }

      .cls-6 {
        fill: #ebe6ff;
      }

      .cls-7 {
        opacity: .27;
      }
    </style>
  </defs>
  <g class="cls-10">
    <g id="Camada_1" data-name="Camada 1">
      <g>
        <path class="cls-3" d="M50.59,25.64c0,.9-.05,1.78-.14,2.66-.36,3.42-1.42,6.64-3.02,9.51,0,0,0,0,0,0-4.27,7.62-12.43,12.78-21.78,12.78C11.86,50.59.68,39.41.68,25.64c0-1.12.07-2.21.22-3.29.21-1.63.59-3.21,1.1-4.74C5.35,7.76,14.67.68,25.64.68c13.78,0,24.95,11.17,24.95,24.95Z"/>
        <path class="cls-5" d="M50.59,25.64c0,.9-.05,1.78-.14,2.66-.36,3.42-1.42,6.64-3.02,9.51,0,0,0,0,0,0-4.91,3.14-10.74,4.96-16.99,4.96-13.51,0-25.03-8.49-29.52-20.43.21-1.63.59-3.21,1.1-4.74C5.35,7.76,14.67.68,25.64.68c13.78,0,24.95,11.17,24.95,24.95Z"/>
        <path class="cls-3" d="M50.59,25.64c0,.9-.05,1.78-.14,2.66-5.45,4.47-12.42,7.16-20.02,7.16-12.52,0-23.33-7.29-28.42-17.85.3-.89.65-1.75,1.04-2.58.05-.1.1-.2.14-.3,1.25-2.57,2.93-4.89,4.95-6.87.82-.81,1.7-1.56,2.63-2.25,1.43-1.06,2.97-1.97,4.61-2.71,3.13-1.41,6.6-2.2,10.25-2.2,3.27,0,6.39.63,9.25,1.77,2.47.99,4.74,2.36,6.75,4.04,3.74,3.13,6.56,7.35,7.95,12.16.65,2.21.99,4.56.99,6.98Z"/>
        <rect class="cls-5" x="25.04" y="15.38" width="4.66" height="22.66" transform="translate(22.94 -11.27) rotate(39.05)"/>
        <path class="cls-4" d="M41.64,6.49c-1.16,2.93-7.58,5.19-15.34,5.19-8.53,0-15.45-2.73-15.52-6.08,1.43-1.06,2.97-1.97,4.61-2.71,3.13-1.41,6.6-2.2,10.25-2.2,3.27,0,6.39.63,9.25,1.77,2.47.99,4.74,2.36,6.75,4.04Z"/>
        <path class="cls-5" d="M49.59,18.65c-.33,1.16-.94,2.19-1.82,2.98-3.44,3.1-9.79,1.66-14.2-3.23-4.4-4.88-5.19-11.36-1.75-14.46.86-.78,1.91-1.27,3.06-1.5,7.08,2.83,12.56,8.8,14.7,16.2Z"/>
        <g>
          <path class="cls-8" d="M35.54,9.47l4.03-1.6,6.09,6.88-1.22,3.32c-.23.61-.83,1.01-1.48.97-2.38-.18-7.7-1.46-7.42-9.4"/>
          <path class="cls-3" d="M43.7,10.45c1.7,1.98,2.46,4.12,1.7,4.78s-2.76-.42-4.46-2.41c-1.7-1.98-2.46-4.12-1.7-4.78.09-.08.21-.13.33-.16.91-.21,2.63.83,4.13,2.57Z"/>
          <path class="cls-4" d="M43.53,11.02c1.29,1.5,1.86,3.12,1.29,3.61s-2.09-.32-3.38-1.82c-1.29-1.5-1.86-3.12-1.29-3.61.07-.06.16-.1.25-.12.69-.16,1.99.63,3.12,1.95Z"/>
        </g>
        <path class="cls-7" d="M16.07,14.39c-5.3,4.09-6.8,6.26-6.8,6.88-2.37-1.54-4.98-3.59-6.08-6.56,1.25-2.57,2.93-4.89,4.95-6.87,1.93,2.47,2.58,4.21,7.93,6.54Z"/>
        <circle class="cls-5" cx="18.97" cy="24.12" r="5.07"/>
        <circle class="cls-1" cx="18.97" cy="24.12" r="4.68"/>
        <path class="cls-5" d="M22.64,24.12c0,.73-.21,1.41-.59,1.98-.13.21-.28.4-.45.57-.18.2-.39.36-.62.51-.14.1-.29.18-.45.25-.2.1-.4.17-.61.22-.14.05-.29.07-.45.09-.17.03-.34.04-.52.04-.03,0-.07,0-.1,0-.16,0-.3-.01-.45-.04-.21-.02-.41-.07-.61-.14-.16-.05-.3-.11-.45-.18-.22-.1-.43-.23-.62-.38-.16-.12-.31-.26-.45-.4-.62-.66-1.01-1.55-1.01-2.52s.39-1.86,1.01-2.52c.14-.14.29-.28.45-.4.19-.15.4-.28.62-.38.14-.07.29-.13.45-.18.2-.07.4-.12.61-.14.14-.03.29-.04.45-.04.03,0,.06,0,.1,0,.18,0,.35.01.52.04.16.02.3.05.45.09.21.05.41.13.61.22.16.07.3.16.45.25.22.15.43.32.62.51.17.17.32.36.45.57.37.58.59,1.25.59,1.98Z"/>
        <g class="cls-11">
          <g>
            <path class="cls-5" d="M16.74,21.19v5.85c-.16-.12-.31-.26-.45-.4v-5.05c.14-.14.29-.28.45-.4Z"/>
            <path class="cls-5" d="M17.81,20.63v6.97c-.16-.05-.3-.11-.45-.18v-6.61c.14-.07.29-.13.45-.18Z"/>
            <path class="cls-5" d="M18.87,20.45v7.34c-.16,0-.3-.01-.45-.04v-7.26c.14-.03.29-.04.45-.04Z"/>
            <path class="cls-5" d="M19.93,20.57v7.08c-.14.05-.29.07-.45.09v-7.27c.16.02.3.05.45.09Z"/>
            <path class="cls-5" d="M20.99,21.05v6.13c-.14.1-.29.18-.45.25v-6.64c.16.07.3.16.45.25Z"/>
            <path class="cls-5" d="M22.05,22.13v3.97c-.13.21-.28.4-.45.57v-5.11c.17.17.32.36.45.57Z"/>
          </g>
        </g>
        <g>
          <path class="cls-5" d="M11.14,36.06s-2.42,7.83.59,9.2,6.58,2.37,6.62.82-.48-7.01-.48-7.01l-6.13-3.01"/>
          <path class="cls-3" d="M16.96,44.86v.12s0,.02,0,.02c0,.02,0,.03-.01.05-.03.33-.31.5-.74.52-.97.08-2.72-.51-4.28-1.21-2.29-1.04-.45-6.99-.45-6.99h.45l4.67,2.28s0,.04.01.12c0,.02,0,.03,0,.05,0,.06.02.14.02.23.1,1.03.33,3.76.33,4.82Z"/>
          <g>
            <path class="cls-8" d="M16.7,44.97c-.79-.41-2.01-.94-2.95-.93-1.53.01-1.45-3.38-.38-3.71,0,0,2.39.14,3.24-.48.03.63.15,3.94.09,5.12Z"/>
            <ellipse class="cls-2" cx="13.41" cy="42.07" rx="1.57" ry=".61" transform="translate(-29.3 53.28) rotate(-87.03)"/>
            <path class="cls-9" d="M13.94,43.67"/>
            <path class="cls-9" d="M13.96,40.65"/>
          </g>
          <path class="cls-5" d="M17.24,45.04c-.03.33-.59.49-1.02.52-.19-1.28.39-5.92.39-5.92,0,0,0,.04.01.12,0,.02,0,.03,0,.05,0,.06.01.14.02.23.08.98.55,3.54.59,5Z"/>
        </g>
        <circle class="cls-5" cx="36.01" cy="22.43" r=".47"/>
        <circle class="cls-5" cx="26.3" cy="33.92" r=".47"/>
        <circle class="cls-5" cx="19.78" cy="42.6" r=".47"/>
        <circle class="cls-5" cx="18.17" cy="31.65" r=".47"/>
        <circle class="cls-5" cx="30.62" cy="16.69" r=".47"/>
        <g>
          <circle class="cls-6" cx="6.76" cy="28.04" r="1.37"/>
          <circle class="cls-6" cx="6.76" cy="28.04" r=".94"/>
        </g>
        <g>
          <circle class="cls-6" cx="19.31" cy="36.87" r="1.37"/>
          <circle class="cls-6" cx="19.31" cy="36.87" r=".94"/>
        </g>
        <g>
          <circle class="cls-6" cx="34.74" cy="38.73" r="1.37"/>
          <circle class="cls-6" cx="34.74" cy="38.73" r=".94"/>
        </g>
      </g>
    </g>
  </g>
</svg>